<svg width="42" height="31" viewBox="0 0 42 31" fill="none" xmlns="http://www.w3.org/2000/svg">
<path d="M0 1.78846C0 0.800722 0.805888 0 1.8 0H40.2C41.1941 0 42 0.800722 42 1.78846C42 2.7762 41.1941 3.57692 40.2 3.57692H1.8C0.805889 3.57692 0 2.7762 0 1.78846Z" fill="black"/>
<path d="M0 29.2115C0 28.2238 0.805888 27.4231 1.8 27.4231H40.2C41.1941 27.4231 42 28.2238 42 29.2115C42 30.1993 41.1941 31 40.2 31H1.8C0.805889 31 0 30.1993 0 29.2115Z" fill="black"/>
<path d="M0 14.9038C0 13.9161 0.805888 13.1154 1.8 13.1154H40.2C41.1941 13.1154 42 13.9161 42 14.9038C42 15.8916 41.1941 16.6923 40.2 16.6923H1.8C0.805889 16.6923 0 15.8916 0 14.9038Z" fill="black"/>
</svg>
