<svg width="86" height="64" viewBox="0 0 86 64" fill="none" xmlns="http://www.w3.org/2000/svg">
<path d="M7.99592 0C3.5815 0 0 3.53976 0 7.90272C0 10.3888 1.18273 12.7267 3.19837 14.2249L37.8473 39.9088C40.6959 42.0162 44.5939 42.0162 47.4424 39.9088L82.0914 14.2249C84.107 12.7267 85.2898 10.3888 85.2898 7.90272C85.2898 3.53976 81.7083 0 77.2939 0H7.99592ZM0 21.7325V52.6848C0 58.4966 4.78089 63.2218 10.6612 63.2218H74.6286C80.5089 63.2218 85.2898 58.4966 85.2898 52.6848V21.7325L52.24 46.2309C46.5596 50.4457 38.7302 50.4457 33.0498 46.2309L0 21.7325Z" fill="#727272"/>
</svg>
