<svg width="102" height="84" viewBox="0 0 102 84" fill="none" xmlns="http://www.w3.org/2000/svg">
<path fill-rule="evenodd" clip-rule="evenodd" d="M9.65901 47.0205L9.71392 47.0381C9.6956 47.0322 9.6773 47.0263 9.65901 47.0205ZM9.65901 47.0205C9.65816 47.0202 9.65733 47.0199 9.65649 47.0195L9.65901 47.0205Z" fill="white"/>
<path d="M96.387 0.0061972H96.2498L96.2436 0L95.2648 0.192041C83.051 3.01074 71.4358 7.35958 61.4167 12.6439C52.3349 16.3939 34.1858 24.1602 6.96934 35.943C2.55104 37.69 0.235897 39.3977 0.023918 41.0662C-0.364607 44.1908 4.0289 45.2186 9.65901 47.0205L9.71392 47.0381C9.84789 47.081 9.98255 47.1244 10.1179 47.1682L9.71392 47.0381L9.65901 47.0205C14.3156 48.7236 19.2215 49.9189 24.6259 50.5692H24.6633C28.479 50.4082 31.9828 49.0329 34.7573 46.8585C60.1864 29.8059 73.3125 21.1867 74.1355 21.0008L74.123 21.007C74.3724 20.9141 74.6405 20.8583 74.921 20.8583C75.345 20.8583 75.7502 20.976 76.0744 21.1867C76.3675 21.5212 76.5483 21.961 76.5483 22.4442C76.5483 22.5805 76.5358 22.7106 76.5109 22.8283C76.0433 24.7859 52.1582 46.3753 50.7804 47.8001C45.5308 53.2145 39.5517 56.5412 48.7728 62.5688C56.747 67.7912 61.3918 71.124 69.6091 76.4827C74.8587 79.9023 78.9736 83.9599 84.3915 83.4582C86.8854 83.2351 89.4603 80.9058 90.7696 73.9489C93.862 57.52 99.947 21.9301 101.35 7.25427V7.31002C101.381 6.91355 101.393 6.51707 101.393 6.1144C101.393 5.22852 101.325 4.36124 101.2 3.60546V3.58687C101.082 2.59568 100.595 1.716 99.8722 1.09031L99.8909 1.1027C98.8996 0.408865 97.69 0.0061972 96.387 0.0061972Z" fill="white"/>
</svg>
