<svg width="87" height="92" viewBox="0 0 87 92" fill="none" xmlns="http://www.w3.org/2000/svg">
<path d="M43.0945 11.4791C27.896 11.4791 15.2562 21.7564 12.7552 35.2802C14.5444 34.7421 16.4682 34.4372 18.4691 34.4372H21.5472C26.6455 34.4372 30.7818 38.2935 30.7818 43.0465V60.2651C30.7818 65.0182 26.6455 68.8745 21.5472 68.8745H18.4691C8.2726 68.8745 0 61.1619 0 51.6558V40.1768C0 17.9899 19.2963 0 43.0945 0C66.8926 0 86.1889 17.9899 86.1889 40.1768V70.3273C86.1889 82.2189 75.8385 91.8505 63.0834 91.8505L46.1726 91.8326H40.0163C34.9181 91.8326 30.7818 87.9764 30.7818 83.2233C30.7818 78.4702 34.9181 74.614 40.0163 74.614H46.1726C51.2709 74.614 55.4072 78.4702 55.4072 83.2233H63.1026C70.7596 83.2233 76.9544 77.4479 76.9544 70.3093V66.5607C74.2417 68.0315 71.0866 68.8565 67.7199 68.8565H64.6417C59.5435 68.8565 55.4072 65.0003 55.4072 60.2472V43.0286C55.4072 38.2755 59.5435 34.4193 64.6417 34.4193H67.7199C69.7207 34.4193 71.6253 34.7063 73.4337 35.2623C70.9327 21.7564 58.3122 11.4611 43.0945 11.4611V11.4791Z" fill="white"/>
</svg>
