<svg width="35" height="26" viewBox="0 0 35 26" fill="none" xmlns="http://www.w3.org/2000/svg">
<path d="M0 1.5C0 0.671573 0.671573 0 1.5 0H33.5C34.3284 0 35 0.671573 35 1.5C35 2.32843 34.3284 3 33.5 3H1.5C0.671574 3 0 2.32843 0 1.5Z" fill="black"/>
<path d="M0 24.5C0 23.6716 0.671573 23 1.5 23H33.5C34.3284 23 35 23.6716 35 24.5C35 25.3284 34.3284 26 33.5 26H1.5C0.671574 26 0 25.3284 0 24.5Z" fill="black"/>
<path d="M0 12.5C0 11.6716 0.671573 11 1.5 11H33.5C34.3284 11 35 11.6716 35 12.5C35 13.3284 34.3284 14 33.5 14H1.5C0.671574 14 0 13.3284 0 12.5Z" fill="black"/>
</svg>
