<svg width="764" height="208" viewBox="0 0 764 208" fill="none" xmlns="http://www.w3.org/2000/svg">
<path d="M338.787 49.7098V1.01448H343.768V22.9612H370.739V1.01448H375.686V49.7098H370.739V27.7293H343.768V49.7098H338.787Z" fill="white"/>
<path d="M382.468 49.7098L399.274 1.01448H405.882L422.688 49.7098H417.504L401.545 3.78741H403.51L387.652 49.7098H382.468ZM389.956 37.9079V33.2413H415.166V37.9079H389.956Z" fill="white"/>
<path d="M429.484 49.7098V1.01448H434.465V44.9417H452.966V1.01448H457.947V44.9417H476.481V1.01448H481.428V49.7098H429.484Z" fill="white"/>
<path d="M505.821 49.7098V1.01448H543.194V49.7098H538.214V5.78257H510.802V49.7098H505.821Z" fill="white"/>
<path d="M553.353 49.7098V1.01448H572.193C572.667 1.01448 573.198 1.03703 573.785 1.08212C574.395 1.10466 575.005 1.17229 575.615 1.28501C578.167 1.66826 580.325 2.55876 582.087 3.95649C583.871 5.33168 585.215 7.06758 586.119 9.16419C587.045 11.2608 587.508 13.5828 587.508 16.1303C587.508 18.6553 587.045 20.966 586.119 23.0626C585.193 25.1592 583.837 26.9064 582.053 28.3041C580.291 29.6793 578.145 30.5586 575.615 30.9418C575.005 31.032 574.395 31.0996 573.785 31.1447C573.198 31.1898 572.667 31.2123 572.193 31.2123H558.334V49.7098H553.353ZM558.334 26.4781H572.057C572.464 26.4781 572.938 26.4555 573.48 26.4104C574.022 26.3654 574.553 26.2864 575.073 26.1737C576.744 25.813 578.111 25.1254 579.173 24.1109C580.257 23.0965 581.059 21.8903 581.578 20.4926C582.121 19.0949 582.392 17.6408 582.392 16.1303C582.392 14.6199 582.121 13.1658 581.578 11.768C581.059 10.3478 580.257 9.13037 579.173 8.11588C578.111 7.1014 576.744 6.4138 575.073 6.0531C574.553 5.94038 574.022 5.87274 573.48 5.8502C572.938 5.80511 572.464 5.78257 572.057 5.78257H558.334V26.4781Z" fill="white"/>
<path d="M614.684 50.7243C609.827 50.7243 605.727 49.6534 602.384 47.5117C599.041 45.3475 596.511 42.3604 594.794 38.5505C593.077 34.7405 592.219 30.3444 592.219 25.3621C592.219 20.3799 593.077 15.9838 594.794 12.1738C596.511 8.36387 599.041 5.38804 602.384 3.24635C605.727 1.08212 609.827 0 614.684 0C619.563 0 623.663 1.08212 626.984 3.24635C630.327 5.38804 632.857 8.36387 634.574 12.1738C636.313 15.9838 637.183 20.3799 637.183 25.3621C637.183 30.3444 636.313 34.7405 634.574 38.5505C632.857 42.3604 630.327 45.3475 626.984 47.5117C623.663 49.6534 619.563 50.7243 614.684 50.7243ZM614.684 45.9562C618.501 45.9562 621.687 45.0882 624.239 43.3523C626.792 41.6165 628.7 39.2042 629.965 36.1157C631.253 33.0046 631.897 29.4201 631.897 25.3621C631.897 21.3042 631.253 17.731 629.965 14.6424C628.7 11.5539 626.792 9.14164 624.239 7.40574C621.687 5.66985 618.501 4.79062 614.684 4.76808C610.866 4.76808 607.692 5.63603 605.162 7.37193C602.632 9.10782 600.724 11.5313 599.436 14.6424C598.171 17.731 597.527 21.3042 597.505 25.3621C597.482 29.4201 598.103 32.9933 599.368 36.0819C600.656 39.1479 602.576 41.5601 605.129 43.3185C607.681 45.0544 610.866 45.9336 614.684 45.9562Z" fill="white"/>
<path d="M644.646 49.7098V1.01448H675.141V5.78257H649.627V22.623H671.075V27.3911H649.627V44.9417H675.141V49.7098H644.646Z" fill="white"/>
<path d="M683.972 49.7098V1.01448H688.953V24.0095L711.215 1.01448H717.585L694.849 24.5167L719.449 49.7098H712.943L688.953 25.3621V49.7098H683.972Z" fill="white"/>
<path d="M737.865 49.7098V5.78257H720.821V1.01448H759.889V5.78257H742.845V49.7098H737.865Z" fill="white"/>
<path d="M22.4649 125.779C17.6083 125.779 13.5083 124.709 10.1651 122.567C6.82193 120.403 4.29194 117.416 2.57516 113.606C0.858388 109.796 0 105.4 0 100.417C0 95.4351 0.858388 91.039 2.57516 87.229C4.29194 83.419 6.82193 80.4432 10.1651 78.3015C13.5083 76.1373 17.6083 75.0552 22.4649 75.0552C28.1348 75.0552 32.7656 76.5093 36.3573 79.4175C39.9489 82.3031 42.4112 86.1807 43.7439 91.0502L38.6614 92.3691C37.6223 88.514 35.7586 85.4593 33.0705 83.2049C30.3824 80.9505 26.8472 79.8233 22.4649 79.8233C18.6474 79.8233 15.4736 80.6912 12.9436 82.4271C10.4136 84.163 8.50482 86.5865 7.21724 89.6976C5.95224 92.7861 5.29716 96.3594 5.25198 100.417C5.22939 104.475 5.85059 108.048 7.11559 111.137C8.40317 114.226 10.3232 116.649 12.8758 118.408C15.451 120.143 18.6474 121.011 22.4649 121.011C26.8472 121.011 30.3824 119.884 33.0705 117.63C35.7586 115.353 37.6223 112.298 38.6614 108.466L43.7439 109.784C42.4112 114.654 39.9489 118.543 36.3573 121.451C32.7656 124.337 28.1348 125.779 22.4649 125.779Z" fill="white"/>
<path d="M51.8977 124.765V76.0697H70.7371C73.4704 76.0697 75.8535 76.6333 77.8866 77.7605C79.9196 78.8877 81.5008 80.4094 82.6303 82.3256C83.7597 84.2194 84.3245 86.316 84.3245 88.6155C84.3245 91.2306 83.6242 93.5639 82.2237 95.6154C80.8231 97.6444 78.9482 99.0534 76.599 99.8424L76.5312 98.1854C79.6937 99.0872 82.1785 100.665 83.9856 102.92C85.7928 105.174 86.6963 107.902 86.6963 111.103C86.6963 113.921 86.0977 116.356 84.9005 118.408C83.7033 120.436 82.0204 122.003 79.8518 123.108C77.6832 124.213 75.1646 124.765 72.2957 124.765H51.8977ZM56.9125 119.997H71.0759C73.0638 119.997 74.8483 119.647 76.4295 118.949C78.0108 118.227 79.2532 117.213 80.1568 115.905C81.0829 114.598 81.546 113.019 81.546 111.171C81.546 109.367 81.1281 107.744 80.2923 106.301C79.4565 104.858 78.3157 103.709 76.87 102.852C75.4469 101.973 73.8205 101.533 71.9908 101.533H56.9125V119.997ZM56.9125 96.8328H70.7032C72.2618 96.8328 73.685 96.4834 74.9725 95.7845C76.2601 95.0631 77.2766 94.0824 78.0221 92.8425C78.7901 91.6026 79.1741 90.171 79.1741 88.5478C79.1741 86.2483 78.3722 84.3772 76.7684 82.9343C75.1871 81.4915 73.1654 80.7701 70.7032 80.7701H56.9125V96.8328Z" fill="white"/>
<path d="M127.376 124.765H122.395V106.268H106.199L104.47 105.862C100.856 105.163 98.0777 103.461 96.1351 100.755C94.1924 98.0502 93.2211 94.8602 93.2211 91.1855C93.2211 88.638 93.6728 86.316 94.5764 84.2194C95.5026 82.1228 96.8466 80.3869 98.6086 79.0117C100.393 77.6139 102.562 76.7234 105.114 76.3402C105.724 76.2275 106.323 76.1598 106.91 76.1373C107.52 76.0922 108.062 76.0697 108.537 76.0697H127.376V124.765ZM97.8292 124.765H92.1029L102.675 103.123L107.452 104.949L97.8292 124.765ZM122.395 101.533V80.8377H108.672C108.265 80.8377 107.791 80.8603 107.249 80.9054C106.707 80.9279 106.176 80.9955 105.656 81.1083C103.985 81.469 102.607 82.1566 101.523 83.1711C100.461 84.1855 99.659 85.4029 99.1168 86.8232C98.5973 88.2209 98.3375 89.675 98.3375 91.1855C98.3375 92.6959 98.5973 94.15 99.1168 95.5478C99.659 96.9455 100.461 98.1516 101.523 99.1661C102.607 100.181 103.985 100.868 105.656 101.229C106.176 101.342 106.707 101.421 107.249 101.466C107.791 101.511 108.265 101.533 108.672 101.533H122.395Z" fill="white"/>
<path d="M153.186 125.779C149.865 125.779 146.985 125.295 144.545 124.325C142.128 123.356 140.141 122.082 138.582 120.504C137.023 118.903 135.86 117.179 135.092 115.33L139.632 112.693C140.174 114.226 141.033 115.623 142.207 116.886C143.382 118.148 144.896 119.151 146.748 119.895C148.6 120.639 150.803 121.011 153.355 121.011C155.998 121.011 158.234 120.594 160.064 119.76C161.916 118.926 163.317 117.754 164.266 116.243C165.214 114.733 165.689 112.974 165.689 110.968C165.689 108.759 165.158 107.045 164.096 105.828C163.035 104.611 161.611 103.754 159.827 103.258C158.042 102.739 156.055 102.446 153.863 102.379C152.214 102.311 151.04 102.266 150.34 102.243C149.639 102.221 149.176 102.21 148.95 102.21C148.724 102.21 148.51 102.21 148.306 102.21V97.4077C148.465 97.4077 148.883 97.4077 149.56 97.4077C150.238 97.4077 150.961 97.4077 151.729 97.4077C152.497 97.3851 153.107 97.3626 153.558 97.34C156.789 97.1822 159.33 96.3368 161.182 94.8038C163.035 93.2708 163.961 91.1968 163.961 88.5816C163.961 85.8087 162.978 83.6558 161.013 82.1228C159.07 80.5897 156.552 79.8233 153.457 79.8233C150.543 79.8233 148.081 80.5221 146.07 81.9199C144.082 83.295 142.456 85.1437 141.191 87.4657L137.125 84.4561C138.661 81.7057 140.829 79.4513 143.631 77.6928C146.432 75.9344 149.752 75.0552 153.592 75.0552C155.648 75.0552 157.613 75.337 159.488 75.9006C161.386 76.4642 163.057 77.2983 164.503 78.403C165.971 79.5076 167.123 80.9054 167.959 82.5962C168.817 84.2644 169.247 86.2258 169.247 88.4802C169.247 91.1179 168.659 93.4174 167.485 95.3787C166.333 97.34 164.842 98.8167 163.012 99.8086C165.497 100.553 167.439 101.86 168.84 103.731C170.263 105.602 170.975 108.048 170.975 111.069C170.975 114.045 170.241 116.638 168.772 118.847C167.304 121.056 165.226 122.77 162.538 123.987C159.872 125.182 156.755 125.779 153.186 125.779Z" fill="white"/>
<path d="M178.645 124.765V76.0697H183.626V94.5671H197.484C197.958 94.5671 198.489 94.5896 199.077 94.6347C199.686 94.6573 200.308 94.7249 200.94 94.8376C203.47 95.2209 205.616 96.1114 207.378 97.5091C209.163 98.8843 210.507 100.62 211.41 102.717C212.336 104.813 212.799 107.124 212.799 109.649C212.799 112.197 212.336 114.519 211.41 116.615C210.507 118.712 209.163 120.459 207.378 121.857C205.616 123.232 203.47 124.111 200.94 124.494C200.308 124.585 199.686 124.652 199.077 124.697C198.489 124.742 197.958 124.765 197.484 124.765H178.645ZM183.626 119.997H197.348C197.778 119.997 198.263 119.974 198.805 119.929C199.348 119.884 199.878 119.817 200.398 119.726C202.047 119.366 203.414 118.678 204.498 117.664C205.582 116.649 206.384 115.443 206.904 114.045C207.423 112.625 207.683 111.16 207.683 109.649C207.683 108.139 207.423 106.685 206.904 105.287C206.384 103.889 205.582 102.683 204.498 101.669C203.414 100.654 202.047 99.9664 200.398 99.6057C199.878 99.493 199.348 99.4141 198.805 99.369C198.263 99.3239 197.778 99.3014 197.348 99.3014H183.626V119.997ZM217.611 124.765V76.0697H222.592V124.765H217.611Z" fill="white"/>
<path d="M232.697 124.765V76.0697H251.536C254.269 76.0697 256.652 76.6333 258.685 77.7605C260.718 78.8877 262.3 80.4094 263.429 82.3256C264.559 84.2194 265.123 86.316 265.123 88.6155C265.123 91.2306 264.423 93.5639 263.023 95.6154C261.622 97.6444 259.747 99.0534 257.398 99.8424L257.33 98.1854C260.493 99.0872 262.977 100.665 264.784 102.92C266.592 105.174 267.495 107.902 267.495 111.103C267.495 113.921 266.897 116.356 265.699 118.408C264.502 120.436 262.819 122.003 260.651 123.108C258.482 124.213 255.963 124.765 253.095 124.765H232.697ZM237.711 119.997H251.875C253.863 119.997 255.647 119.647 257.228 118.949C258.81 118.227 260.052 117.213 260.956 115.905C261.882 114.598 262.345 113.019 262.345 111.171C262.345 109.367 261.927 107.744 261.091 106.301C260.255 104.858 259.115 103.709 257.669 102.852C256.246 101.973 254.619 101.533 252.79 101.533H237.711V119.997ZM237.711 96.8328H251.502C253.061 96.8328 254.484 96.4834 255.771 95.7845C257.059 95.0631 258.076 94.0824 258.821 92.8425C259.589 91.6026 259.973 90.171 259.973 88.5478C259.973 86.2483 259.171 84.3772 257.567 82.9343C255.986 81.4915 253.964 80.7701 251.502 80.7701H237.711V96.8328Z" fill="white"/>
<path d="M271.546 124.765L288.353 76.0697H294.96L311.766 124.765H306.582L290.623 78.8426H292.588L276.731 124.765H271.546ZM279.035 112.963V108.296H304.244V112.963H279.035Z" fill="white"/>
<path d="M318.563 124.765V76.0697H349.058V80.8377H323.544V97.6782H344.992V102.446H323.544V119.997H349.058V124.765H318.563Z" fill="white"/>
<path d="M370.867 124.765V80.8377H353.823V76.0697H392.891V80.8377H375.847V124.765H370.867Z" fill="white"/>
<path d="M399.002 124.765V76.0697H403.983V98.0164H430.955V76.0697H435.902V124.765H430.955V102.784H403.983V124.765H399.002Z" fill="white"/>
<path d="M446.072 124.765V76.0697H476.567V80.8377H451.052V97.6782H472.501V102.446H451.052V119.997H476.567V124.765H446.072Z" fill="white"/>
<path d="M512.62 124.765V80.8377H495.576V76.0697H534.644V80.8377H517.601V124.765H512.62Z" fill="white"/>
<path d="M560.51 125.779C555.653 125.779 551.553 124.709 548.21 122.567C544.867 120.403 542.337 117.416 540.62 113.606C538.903 109.796 538.045 105.4 538.045 100.417C538.045 95.4351 538.903 91.039 540.62 87.229C542.337 83.419 544.867 80.4432 548.21 78.3015C551.553 76.1373 555.653 75.0552 560.51 75.0552C565.389 75.0552 569.489 76.1373 572.809 78.3015C576.153 80.4432 578.683 83.419 580.399 87.229C582.139 91.039 583.008 95.4351 583.008 100.417C583.008 105.4 582.139 109.796 580.399 113.606C578.683 117.416 576.153 120.403 572.809 122.567C569.489 124.709 565.389 125.779 560.51 125.779ZM560.51 121.011C564.327 121.011 567.512 120.143 570.065 118.408C572.617 116.672 574.526 114.259 575.791 111.171C577.079 108.06 577.723 104.475 577.723 100.417C577.723 96.3594 577.079 92.7861 575.791 89.6976C574.526 86.609 572.617 84.1968 570.065 82.4609C567.512 80.725 564.327 79.8458 560.51 79.8233C556.692 79.8233 553.518 80.6912 550.988 82.4271C548.458 84.163 546.55 86.5865 545.262 89.6976C543.997 92.7861 543.353 96.3594 543.331 100.417C543.308 104.475 543.929 108.048 545.194 111.137C546.482 114.203 548.402 116.615 550.954 118.374C553.507 120.11 556.692 120.989 560.51 121.011Z" fill="white"/>
<path d="M585.76 124.765V120.335C587.002 120.448 588.03 120.403 588.843 120.2C589.657 119.974 590.312 119.478 590.809 118.712C591.328 117.945 591.78 116.807 592.164 115.296C592.548 113.763 592.932 111.768 593.316 109.311C593.745 106.651 594.107 104.002 594.4 101.364C594.716 98.7265 594.988 96.055 595.213 93.3497C595.462 90.6219 595.665 87.8264 595.823 84.9633C595.981 82.1002 596.128 79.1357 596.264 76.0697H627.064V124.765H622.083V80.8377H601.075C600.917 83.1598 600.759 85.5382 600.601 87.9729C600.465 90.4077 600.285 92.8988 600.059 95.4463C599.856 97.9938 599.596 100.62 599.279 103.326C598.986 106.008 598.613 108.781 598.161 111.644C597.8 113.809 597.371 115.815 596.874 117.664C596.399 119.512 595.722 121.068 594.841 122.33C593.982 123.593 592.819 124.461 591.351 124.934C589.905 125.407 588.041 125.351 585.76 124.765Z" fill="white"/>
<path d="M637.176 124.765V76.0697H642.157V94.5671H656.016C656.49 94.5671 657.021 94.5896 657.608 94.6347C658.218 94.6573 658.839 94.7249 659.472 94.8376C662.002 95.2209 664.148 96.1114 665.91 97.5091C667.694 98.8843 669.038 100.62 669.942 102.717C670.868 104.813 671.331 107.124 671.331 109.649C671.331 112.197 670.868 114.519 669.942 116.615C669.038 118.712 667.694 120.459 665.91 121.857C664.148 123.232 662.002 124.111 659.472 124.494C658.839 124.585 658.218 124.652 657.608 124.697C657.021 124.742 656.49 124.765 656.016 124.765H637.176ZM642.157 119.997H655.88C656.309 119.997 656.795 119.974 657.337 119.929C657.879 119.884 658.41 119.817 658.93 119.726C660.579 119.366 661.945 118.678 663.03 117.664C664.114 116.649 664.916 115.443 665.435 114.045C665.955 112.625 666.215 111.16 666.215 109.649C666.215 108.139 665.955 106.685 665.435 105.287C664.916 103.889 664.114 102.683 663.03 101.669C661.945 100.654 660.579 99.9664 658.93 99.6057C658.41 99.493 657.879 99.4141 657.337 99.369C656.795 99.3239 656.309 99.3014 655.88 99.3014H642.157V119.997Z" fill="white"/>
<path d="M679.448 124.765V76.0697H684.429V99.0647L706.691 76.0697H713.061L690.325 99.5719L714.925 124.765H708.419L684.429 100.417V124.765H679.448Z" fill="white"/>
<path d="M737.867 125.779C733.011 125.779 728.911 124.709 725.567 122.567C722.224 120.403 719.694 117.416 717.977 113.606C716.261 109.796 715.402 105.4 715.402 100.417C715.402 95.4351 716.261 91.039 717.977 87.229C719.694 83.419 722.224 80.4432 725.567 78.3015C728.911 76.1373 733.011 75.0552 737.867 75.0552C742.746 75.0552 746.846 76.1373 750.167 78.3015C753.51 80.4432 756.04 83.419 757.757 87.229C759.496 91.039 760.366 95.4351 760.366 100.417C760.366 105.4 759.496 109.796 757.757 113.606C756.04 117.416 753.51 120.403 750.167 122.567C746.846 124.709 742.746 125.779 737.867 125.779ZM737.867 121.011C741.685 121.011 744.87 120.143 747.422 118.408C749.975 116.672 751.884 114.259 753.149 111.171C754.436 108.06 755.08 104.475 755.08 100.417C755.08 96.3594 754.436 92.7861 753.149 89.6976C751.884 86.609 749.975 84.1968 747.422 82.4609C744.87 80.725 741.685 79.8458 737.867 79.8233C734.05 79.8233 730.876 80.6912 728.346 82.4271C725.816 84.163 723.907 86.5865 722.619 89.6976C721.354 92.7861 720.711 96.3594 720.688 100.417C720.666 104.475 721.287 108.048 722.552 111.137C723.839 114.203 725.759 116.615 728.312 118.374C730.864 120.11 734.05 120.989 737.867 121.011Z" fill="white"/>
<path d="M2.7107 200.808V152.112H7.69161V174.059H34.6631V152.112H39.6101V200.808H34.6631V178.827H7.69161V200.808H2.7107Z" fill="white"/>
<path d="M46.3916 200.808L63.1979 152.112H69.8053L86.6116 200.808H81.4274L65.4682 154.885H67.4334L51.5758 200.808H46.3916ZM53.8799 189.006V184.339H79.0894V189.006H53.8799Z" fill="white"/>
<path d="M113.162 201.822C108.305 201.822 104.206 200.751 100.862 198.61C97.5192 196.445 94.9892 193.458 93.2724 189.648C91.5556 185.838 90.6972 181.442 90.6972 176.46C90.6972 171.478 91.5556 167.082 93.2724 163.272C94.9892 159.462 97.5192 156.486 100.862 154.344C104.206 152.18 108.305 151.098 113.162 151.098C118.832 151.098 123.463 152.552 127.054 155.46C130.646 158.346 133.108 162.223 134.441 167.093L129.359 168.412C128.319 164.557 126.456 161.502 123.768 159.248C121.08 156.993 117.544 155.866 113.162 155.866C109.345 155.866 106.171 156.734 103.641 158.47C101.111 160.206 99.2021 162.629 97.9145 165.74C96.6495 168.829 95.9944 172.402 95.9492 176.46C95.9266 180.518 96.5478 184.091 97.8128 187.18C99.1004 190.268 101.02 192.692 103.573 194.45C106.148 196.186 109.345 197.054 113.162 197.054C117.544 197.054 121.08 195.927 123.768 193.672C126.456 191.396 128.319 188.341 129.359 184.508L134.441 185.827C133.108 190.697 130.646 194.586 127.054 197.494C123.463 200.379 118.832 201.822 113.162 201.822Z" fill="white"/>
<path d="M138.542 207.875L138.847 205.407C139.751 205.474 140.406 205.294 140.812 204.866C141.219 204.437 141.467 203.862 141.558 203.141C141.648 202.42 141.671 201.642 141.626 200.808H138.542V193.672H144.336V202.16C144.336 204.234 143.805 205.79 142.744 206.827C141.705 207.864 140.304 208.213 138.542 207.875Z" fill="white"/>
<path d="M191.141 201.822C186.285 201.822 182.185 200.751 178.841 198.61C175.498 196.445 172.968 193.458 171.252 189.648C169.535 185.838 168.676 181.442 168.676 176.46C168.676 171.478 169.535 167.082 171.252 163.272C172.968 159.462 175.498 156.486 178.841 154.344C182.185 152.18 186.285 151.098 191.141 151.098C196.811 151.098 201.442 152.552 205.034 155.46C208.625 158.346 211.087 162.223 212.42 167.093L207.338 168.412C206.299 164.557 204.435 161.502 201.747 159.248C199.059 156.993 195.524 155.866 191.141 155.866C187.324 155.866 184.15 156.734 181.62 158.47C179.09 160.206 177.181 162.629 175.894 165.74C174.629 168.829 173.974 172.402 173.928 176.46C173.906 180.518 174.527 184.091 175.792 187.18C177.08 190.268 179 192.692 181.552 194.45C184.127 196.186 187.324 197.054 191.141 197.054C195.524 197.054 199.059 195.927 201.747 193.672C204.435 191.396 206.299 188.341 207.338 184.508L212.42 185.827C211.087 190.697 208.625 194.586 205.034 197.494C201.442 200.379 196.811 201.822 191.141 201.822Z" fill="white"/>
<path d="M220.574 200.808V152.112H225.555V174.059H252.526V152.112H257.473V200.808H252.526V178.827H225.555V200.808H220.574Z" fill="white"/>
<path d="M264.255 200.808L281.061 152.112H287.669L304.475 200.808H299.291L283.332 154.885H285.297L269.439 200.808H264.255ZM271.743 189.006V184.339H296.953V189.006H271.743Z" fill="white"/>
<path d="M311.949 200.808V152.112H316.93V200.808H311.949Z" fill="white"/>
<path d="M327.766 200.808V152.112H332.781L359.65 192.015V152.112H364.665V200.808H359.65L332.781 160.871V200.808H327.766Z" fill="white"/>
<path d="M374.835 200.808V152.112H405.33V156.88H379.816V173.721H401.264V178.489H379.816V196.04H405.33V200.808H374.835Z" fill="white"/>
<path d="M414.161 200.808V152.112H428.969C429.488 152.112 430.369 152.124 431.612 152.146C432.877 152.169 434.085 152.259 435.237 152.417C438.942 152.935 442.036 154.31 444.521 156.542C447.006 158.774 448.87 161.615 450.112 165.064C451.354 168.513 451.976 172.312 451.976 176.46C451.976 180.608 451.354 184.407 450.112 187.856C448.87 191.305 447.006 194.146 444.521 196.378C442.036 198.61 438.942 199.985 435.237 200.503C434.108 200.639 432.899 200.729 431.612 200.774C430.324 200.796 429.443 200.808 428.969 200.808H414.161ZM419.312 196.04H428.969C429.895 196.04 430.889 196.017 431.95 195.972C433.035 195.904 433.961 195.792 434.729 195.634C437.575 195.138 439.868 193.988 441.607 192.185C443.369 190.381 444.657 188.127 445.47 185.421C446.283 182.693 446.69 179.706 446.69 176.46C446.69 173.191 446.283 170.193 445.47 167.465C444.657 164.737 443.369 162.483 441.607 160.702C439.845 158.921 437.552 157.782 434.729 157.286C433.961 157.128 433.023 157.027 431.917 156.982C430.832 156.914 429.85 156.88 428.969 156.88H419.312V196.04Z" fill="white"/>
<path d="M475.37 200.808V152.112H494.21C494.684 152.112 495.215 152.135 495.802 152.18C496.412 152.203 497.022 152.27 497.632 152.383C500.185 152.766 502.342 153.657 504.104 155.054C505.888 156.43 507.232 158.165 508.136 160.262C509.062 162.359 509.525 164.681 509.525 167.228C509.525 169.753 509.062 172.064 508.136 174.161C507.21 176.257 505.854 178.004 504.07 179.402C502.308 180.777 500.162 181.656 497.632 182.04C497.022 182.13 496.412 182.198 495.802 182.243C495.215 182.288 494.684 182.31 494.21 182.31H480.351V200.808H475.37ZM480.351 177.576H494.074C494.481 177.576 494.955 177.553 495.497 177.508C496.039 177.463 496.57 177.384 497.09 177.272C498.761 176.911 500.128 176.223 501.19 175.209C502.274 174.194 503.076 172.988 503.596 171.591C504.138 170.193 504.409 168.739 504.409 167.228C504.409 165.718 504.138 164.264 503.596 162.866C503.076 161.446 502.274 160.228 501.19 159.214C500.128 158.199 498.761 157.512 497.09 157.151C496.57 157.038 496.039 156.971 495.497 156.948C494.955 156.903 494.481 156.88 494.074 156.88H480.351V177.576Z" fill="white"/>
<path d="M516.947 200.808V152.112H535.786C536.261 152.112 536.791 152.135 537.379 152.18C537.989 152.203 538.598 152.27 539.208 152.383C541.761 152.766 543.918 153.657 545.68 155.054C547.465 156.43 548.809 158.165 549.712 160.262C550.638 162.359 551.102 164.681 551.102 167.228C551.102 170.903 550.13 174.093 548.188 176.798C546.245 179.504 543.466 181.206 539.852 181.904L538.124 182.31H521.928V200.808H516.947ZM546.493 200.808L536.87 180.991L541.648 179.165L552.22 200.808H546.493ZM521.928 177.576H535.651C536.057 177.576 536.532 177.553 537.074 177.508C537.616 177.463 538.147 177.384 538.666 177.272C540.338 176.911 541.704 176.223 542.766 175.209C543.85 174.194 544.652 172.988 545.172 171.591C545.714 170.193 545.985 168.739 545.985 167.228C545.985 165.718 545.714 164.264 545.172 162.866C544.652 161.446 543.85 160.228 542.766 159.214C541.704 158.199 540.338 157.512 538.666 157.151C538.147 157.038 537.616 156.971 537.074 156.948C536.532 156.903 536.057 156.88 535.651 156.88H521.928V177.576Z" fill="white"/>
<path d="M580.13 201.822C575.274 201.822 571.174 200.751 567.831 198.61C564.487 196.445 561.957 193.458 560.241 189.648C558.524 185.838 557.666 181.442 557.666 176.46C557.666 171.478 558.524 167.082 560.241 163.272C561.957 159.462 564.487 156.486 567.831 154.344C571.174 152.18 575.274 151.098 580.13 151.098C585.01 151.098 589.11 152.18 592.43 154.344C595.773 156.486 598.303 159.462 600.02 163.272C601.76 167.082 602.629 171.478 602.629 176.46C602.629 181.442 601.76 185.838 600.02 189.648C598.303 193.458 595.773 196.445 592.43 198.61C589.11 200.751 585.01 201.822 580.13 201.822ZM580.13 197.054C583.948 197.054 587.133 196.186 589.686 194.45C592.238 192.714 594.147 190.302 595.412 187.214C596.7 184.103 597.343 180.518 597.343 176.46C597.343 172.402 596.7 168.829 595.412 165.74C594.147 162.652 592.238 160.24 589.686 158.504C587.133 156.768 583.948 155.889 580.13 155.866C576.313 155.866 573.139 156.734 570.609 158.47C568.079 160.206 566.17 162.629 564.883 165.74C563.618 168.829 562.974 172.402 562.951 176.46C562.929 180.518 563.55 184.091 564.815 187.18C566.103 190.246 568.023 192.658 570.575 194.416C573.128 196.152 576.313 197.032 580.13 197.054Z" fill="white"/>
<path d="M618.428 201.788C615.175 201.788 612.385 200.887 610.059 199.083C607.732 197.28 606.162 194.867 605.349 191.846L610.33 190.663C610.736 192.444 611.674 193.954 613.142 195.194C614.633 196.412 616.384 197.02 618.394 197.02C619.659 197.02 620.935 196.716 622.223 196.107C623.533 195.499 624.561 194.495 625.306 193.098C625.803 192.128 626.086 191.08 626.154 189.953C626.244 188.803 626.289 187.428 626.289 185.827V152.112H631.304V185.827C631.304 187.18 631.292 188.408 631.27 189.513C631.247 190.595 631.123 191.644 630.897 192.658C630.694 193.65 630.299 194.653 629.711 195.668C628.537 197.719 626.955 199.252 624.968 200.267C623.002 201.281 620.822 201.788 618.428 201.788Z" fill="white"/>
<path d="M642.205 200.808V152.112H672.701V156.88H647.186V173.721H668.635V178.489H647.186V196.04H672.701V200.808H642.205Z" fill="white"/>
<path d="M699.565 201.822C694.709 201.822 690.609 200.751 687.266 198.61C683.922 196.445 681.392 193.458 679.676 189.648C677.959 185.838 677.1 181.442 677.1 176.46C677.1 171.478 677.959 167.082 679.676 163.272C681.392 159.462 683.922 156.486 687.266 154.344C690.609 152.18 694.709 151.098 699.565 151.098C705.235 151.098 709.866 152.552 713.458 155.46C717.049 158.346 719.512 162.223 720.844 167.093L715.762 168.412C714.723 164.557 712.859 161.502 710.171 159.248C707.483 156.993 703.948 155.866 699.565 155.866C695.748 155.866 692.574 156.734 690.044 158.47C687.514 160.206 685.605 162.629 684.318 165.74C683.053 168.829 682.398 172.402 682.352 176.46C682.33 180.518 682.951 184.091 684.216 187.18C685.504 190.268 687.424 192.692 689.976 194.45C692.551 196.186 695.748 197.054 699.565 197.054C703.948 197.054 707.483 195.927 710.171 193.672C712.859 191.396 714.723 188.341 715.762 184.508L720.844 185.827C719.512 190.697 717.049 194.586 713.458 197.494C709.866 200.379 705.235 201.822 699.565 201.822Z" fill="white"/>
<path d="M741.976 200.808V156.88H724.932V152.112H764V156.88H746.957V200.808H741.976Z" fill="white"/>
</svg>
