<svg width="55" height="16" viewBox="0 0 55 16" fill="none" xmlns="http://www.w3.org/2000/svg">
<path fill-rule="evenodd" clip-rule="evenodd" d="M8.44031 12.1162H6.04528C2.30903 12.1162 5.02341 3.86722 8.16888 3.86722H11.9531C12.5598 3.86722 13.6296 3.98342 14.1565 2.42324L14.9708 0H9.78153C6.97138 0 4.78389 1.02905 3.20317 2.75519C0.472829 5.70954 -0.45325 10.3237 0.201394 12.5311C0.824104 14.5726 2.5166 15.917 5.16709 15.9502L7.22684 15.9668H9.76556L10.3883 14.0249C10.8513 12.6473 9.81348 12.1162 8.44031 12.1162ZM37.5959 8.69709L38.3782 6.0581H30.0276C28.6385 6.0581 28.0158 6.45644 27.7763 7.28629L26.9939 9.92531H35.3446C36.7337 9.92531 37.3564 9.52697 37.5959 8.69709ZM25.7485 13.3444L24.9661 15.9834H33.3168C34.6899 15.9834 35.3286 15.5851 35.5681 14.7552L36.3505 12.1162H27.9998C26.6266 12.1162 26.0039 12.5145 25.7485 13.3444ZM39.5438 2.6556L40.3264 0.0165973H31.9756C30.5865 0.0165973 29.9637 0.414937 29.7242 1.24481L28.9419 3.88382H37.2926C38.6659 3.88382 39.2883 3.48548 39.5438 2.6556ZM26.93 3.18673C26.5787 0.730292 25.3173 0.0165973 22.2517 0.0165973H16.6633L13.4061 9.92531H15.4658C16.6952 9.92531 17.3179 9.94192 17.9726 8.11618L19.3298 3.86722H21.4055C23.1778 3.86722 22.7786 6.17429 21.8845 8.41493C21.0861 10.39 19.697 12.1328 18.0205 12.1328H14.5557C13.1665 12.1328 12.5279 12.5311 12.2724 13.361L11.4102 16H13.9489L16.4398 15.9834C18.6432 15.9668 20.4474 15.8008 22.5551 13.8257C24.7905 11.7178 27.3771 6.30705 26.93 3.18673ZM55 0H50.1621L45.6114 5.02904C45.0843 5.60995 44.5415 6.19086 44.0144 6.87139H43.9666L46.2338 0H42.2903L36.9732 15.9834H40.9171L42.6094 10.9544L44.3657 9.41079L45.755 13.9585C46.186 15.3693 46.6334 15.9834 47.5914 15.9834H50.6091L47.5113 7.05395L55 0Z" fill="white"/>
</svg>
