<svg width="22" height="22" viewBox="0 0 22 22" fill="none" xmlns="http://www.w3.org/2000/svg">
<path d="M12.3225 0C9.78213 0.00307919 7.34664 1.01362 5.5503 2.80997C3.75395 4.60631 2.74341 7.0418 2.74033 9.58222C2.74709 11.6459 3.42629 13.6511 4.67503 15.294L0.403595 19.5655C0.275914 19.6924 0.174542 19.8434 0.105286 20.0096C0.03603 20.1758 0.00025185 20.354 1.32485e-06 20.5341C-0.0002492 20.7142 0.0350328 20.8925 0.103826 21.0589C0.172619 21.2253 0.273571 21.3765 0.400898 21.5039C0.528225 21.6312 0.679424 21.7321 0.845832 21.8009C1.01224 21.8697 1.19059 21.905 1.37066 21.9048C1.55072 21.9045 1.72897 21.8687 1.89519 21.7995C2.0614 21.7302 2.21232 21.6289 2.33929 21.5012L6.61072 17.2297C8.25369 18.4785 10.2589 19.1577 12.3225 19.1644C14.8639 19.1644 17.3012 18.1549 19.0982 16.3579C20.8952 14.5609 21.9048 12.1236 21.9048 9.58222C21.9048 7.04085 20.8952 4.60358 19.0982 2.80657C17.3012 1.00955 14.8639 0 12.3225 0ZM12.3225 16.4267C10.9688 16.4267 9.64554 16.0252 8.51998 15.2732C7.39442 14.5211 6.51715 13.4521 5.99911 12.2015C5.48107 10.9508 5.34553 9.57462 5.60962 8.24693C5.87372 6.91924 6.52558 5.69968 7.4828 4.74247C8.44001 3.78525 9.65957 3.13338 10.9873 2.86929C12.315 2.6052 13.6911 2.74074 14.9418 3.25878C16.1925 3.77682 17.2614 4.65409 18.0135 5.77965C18.7656 6.90521 19.167 8.22851 19.167 9.58222C19.1649 11.3968 18.4431 13.1365 17.1599 14.4196C15.8768 15.7027 14.1371 16.4245 12.3225 16.4267Z" fill="white"/>
</svg>
