<svg width="131" height="150" viewBox="0 0 131 150" fill="none" xmlns="http://www.w3.org/2000/svg">
<path d="M65.058 18.6884C42.1134 18.6884 23.0317 35.4203 19.256 57.4376C21.9571 56.5615 24.8614 56.0651 27.882 56.0651H32.529C40.2256 56.0651 46.47 62.3433 46.47 70.0814V98.114C46.47 105.852 40.2256 112.13 32.529 112.13H27.882C12.4888 112.13 0 99.574 0 84.0977V65.4093C0 29.2882 29.1309 0 65.058 0C100.985 0 130.116 29.2882 130.116 65.4093V114.496C130.116 133.856 114.49 149.536 95.2344 149.536L69.705 149.507H60.411C52.7144 149.507 46.47 143.229 46.47 135.491C46.47 127.753 52.7144 121.474 60.411 121.474H69.705C77.4015 121.474 83.6459 127.753 83.6459 135.491H95.2634C106.823 135.491 116.175 126.088 116.175 114.466V108.363C112.08 110.758 107.317 112.101 102.234 112.101H97.5869C89.8903 112.101 83.6459 105.823 83.6459 98.0848V70.0522C83.6459 62.3141 89.8903 56.0359 97.5869 56.0359H102.234C105.254 56.0359 108.13 56.5031 110.86 57.4084C107.084 35.4203 88.0315 18.6592 65.058 18.6592V18.6884Z" fill="white"/>
</svg>
