<svg width="166" height="136" viewBox="0 0 166 136" fill="none" xmlns="http://www.w3.org/2000/svg">
<path fill-rule="evenodd" clip-rule="evenodd" d="M15.7252 76.5511L15.8146 76.5798C15.7848 76.5702 15.755 76.5607 15.7252 76.5511ZM15.7252 76.5511C15.7239 76.5506 15.7225 76.5501 15.7211 76.5496L15.7252 76.5511Z" fill="white"/>
<path d="M156.922 0.0100893H156.698L156.688 0L155.095 0.312651C135.21 4.9016 116.3 11.9817 99.9888 20.5847C85.2032 26.6898 55.6557 39.3338 11.3464 58.5166C4.15319 61.3607 0.384049 64.141 0.0389394 66.8574C-0.593594 71.9443 6.55921 73.6176 15.7252 76.5511L15.8146 76.5798C16.0327 76.6497 16.252 76.7203 16.4723 76.7917L15.8146 76.5798L15.7252 76.5511C23.3063 79.3239 31.2933 81.2699 40.092 82.3287H40.1529C46.3649 82.0665 52.0693 79.8275 56.5862 76.2874C97.9858 48.5251 119.356 34.4927 120.695 34.1902L120.675 34.2003C121.081 34.049 121.518 33.9582 121.974 33.9582C122.665 33.9582 123.324 34.1498 123.852 34.4927C124.329 35.0373 124.624 35.7534 124.624 36.5401C124.624 36.762 124.603 36.9738 124.563 37.1654C123.801 40.3525 84.9156 75.5007 82.6724 77.8204C74.1259 86.6352 64.3918 92.0512 79.404 101.864C92.3862 110.367 99.9482 115.793 113.326 124.517C121.873 130.084 128.572 136.69 137.393 135.873C141.453 135.51 145.645 131.718 147.776 120.392C152.811 93.6447 162.718 35.703 165.001 11.8102V11.901C165.052 11.2555 165.072 10.61 165.072 9.95448C165.072 8.51224 164.961 7.10026 164.758 5.86982V5.83956C164.565 4.22587 163.773 2.79371 162.596 1.77507L162.626 1.79523C161.012 0.665648 159.043 0.0100893 156.922 0.0100893Z" fill="white"/>
</svg>
