<svg width="139" height="103" viewBox="0 0 139 103" fill="none" xmlns="http://www.w3.org/2000/svg">
<path d="M13.0177 0C5.83083 0 0 5.76287 0 12.8659C0 16.9134 1.92553 20.7195 5.20706 23.1587L61.6169 64.973C66.2545 68.4039 72.6006 68.4039 77.2381 64.973L133.648 23.1587C136.93 20.7195 138.855 16.9134 138.855 12.8659C138.855 5.76287 133.024 0 125.837 0H13.0177ZM0 35.3813V85.7729C0 95.2348 7.78348 102.928 17.3569 102.928H121.498C131.072 102.928 138.855 95.2348 138.855 85.7729V35.3813L85.0487 75.2657C75.8008 82.1276 63.0543 82.1276 53.8063 75.2657L0 35.3813Z" fill="white"/>
</svg>
