<svg width="34" height="26" viewBox="0 0 34 26" fill="none" xmlns="http://www.w3.org/2000/svg">
<path d="M3.3572 3.38744C3.3572 1.51906 4.86269 0 6.7144 0H21.8218C23.6735 0 25.179 1.51906 25.179 3.38744V5.08117H27.8385C28.7303 5.08117 29.5853 5.43579 30.2148 6.07094L32.5911 8.46861C33.2205 9.10376 33.572 9.9665 33.572 10.8663V18.6309C33.572 20.4993 32.0665 22.0184 30.2148 22.0184H30.0417C29.4962 23.9715 27.7126 25.4058 25.5987 25.4058C23.4847 25.4058 21.7064 23.9715 21.1556 22.0184H15.7736C15.2281 23.9715 13.4445 25.4058 11.3306 25.4058C9.21656 25.4058 7.4383 23.9715 6.88751 22.0184H6.7144C4.86269 22.0184 3.3572 20.4993 3.3572 18.6309V16.0904H1.25895C0.561282 16.0904 0 15.524 0 14.8201C0 14.1161 0.561282 13.5498 1.25895 13.5498H7.13405C7.83172 13.5498 8.393 12.9834 8.393 12.2795C8.393 11.5755 7.83172 11.0092 7.13405 11.0092H1.25895C0.561282 11.0092 0 10.4429 0 9.7389C0 9.03495 0.561282 8.46861 1.25895 8.46861H10.4913C11.1889 8.46861 11.7502 7.90227 11.7502 7.19832C11.7502 6.49437 11.1889 5.92803 10.4913 5.92803H1.25895C0.561282 5.92803 0 5.36169 0 4.65774C0 3.95378 0.561282 3.38744 1.25895 3.38744H3.3572ZM30.2148 13.5498V10.8663L27.8385 8.46861H25.179V13.5498H30.2148ZM13.4288 20.7481C13.4288 19.5784 12.4898 18.6309 11.3306 18.6309C10.1713 18.6309 9.2323 19.5784 9.2323 20.7481C9.2323 21.9178 10.1713 22.8653 11.3306 22.8653C12.4898 22.8653 13.4288 21.9178 13.4288 20.7481ZM25.5987 22.8653C26.7579 22.8653 27.6969 21.9178 27.6969 20.7481C27.6969 19.5784 26.7579 18.6309 25.5987 18.6309C24.4394 18.6309 23.5004 19.5784 23.5004 20.7481C23.5004 21.9178 24.4394 22.8653 25.5987 22.8653Z" fill="white"/>
</svg>
