<svg width="34" height="24" viewBox="0 0 34 24" fill="none" xmlns="http://www.w3.org/2000/svg">
<path d="M0 3.93186V5.89778H33.572V3.93186C33.572 1.76319 31.6901 0 29.3755 0H4.1965C1.88187 0 0 1.76319 0 3.93186ZM0 8.84668V19.6593C0 21.8279 1.88187 23.5911 4.1965 23.5911H29.3755C31.6901 23.5911 33.572 21.8279 33.572 19.6593V8.84668H0ZM4.1965 18.1848C4.1965 17.3677 4.8981 16.7104 5.77019 16.7104H8.91756C9.78965 16.7104 10.4913 17.3677 10.4913 18.1848C10.4913 19.0019 9.78965 19.6593 8.91756 19.6593H5.77019C4.8981 19.6593 4.1965 19.0019 4.1965 18.1848ZM13.6386 18.1848C13.6386 17.3677 14.3402 16.7104 15.2123 16.7104H19.4088C20.2809 16.7104 20.9825 17.3677 20.9825 18.1848C20.9825 19.0019 20.2809 19.6593 19.4088 19.6593H15.2123C14.3402 19.6593 13.6386 19.0019 13.6386 18.1848Z" fill="white"/>
</svg>
