<svg width="26" height="26" viewBox="0 0 26 26" fill="none" xmlns="http://www.w3.org/2000/svg">
<path d="M7.94586 1.24121C7.55383 0.303312 6.53159 -0.192931 5.55897 0.0700778L5.28604 0.144514C2.08036 1.0179 -0.658852 4.12439 0.140086 7.90577C1.98112 16.59 8.81427 23.4233 17.4984 25.2644C21.2847 26.0683 24.3861 23.3241 25.2595 20.1183L25.3339 19.8454C25.6019 18.8678 25.1007 17.8455 24.1678 17.4585L19.3394 15.4487C18.5206 15.1063 17.5728 15.3445 17.0071 16.0342L15.0916 18.3765C11.6031 16.6446 8.79442 13.7466 7.18166 10.1885L9.37502 8.40201C10.0648 7.84125 10.298 6.89343 9.96057 6.06966L7.94586 1.24121Z" fill="white"/>
</svg>
