<svg width="50" height="15" viewBox="0 0 50 15" fill="none" xmlns="http://www.w3.org/2000/svg">
<path fill-rule="evenodd" clip-rule="evenodd" d="M7.65833 10.9936H5.48519C2.0951 10.9936 4.558 3.50893 7.41205 3.50893H10.8456C11.3961 3.50893 12.3668 3.61436 12.8449 2.19873L13.5838 0H8.87529C6.32549 0 4.34067 0.933707 2.9064 2.49992C0.429022 5.18055 -0.411257 9.36718 0.182736 11.3701C0.747752 13.2225 2.28344 14.4423 4.68837 14.4725L6.55728 14.4875H8.86079L9.42583 12.7255C9.84596 11.4756 8.90428 10.9936 7.65833 10.9936ZM34.1127 7.89131L34.8225 5.49683H27.2456C25.9852 5.49683 25.4201 5.85826 25.2028 6.61123L24.4929 9.00575H32.07C33.3304 9.00575 33.8954 8.64431 34.1127 7.89131ZM23.3629 12.1081L22.653 14.5026H30.23C31.476 14.5026 32.0555 14.1411 32.2728 13.3882L32.9827 10.9936H25.4057C24.1597 10.9936 23.5947 11.3551 23.3629 12.1081ZM35.8802 2.40957L36.5902 0.0150596H29.0131C27.7527 0.0150596 27.1876 0.376494 26.9703 1.12948L26.2604 3.52399H33.8375C35.0835 3.52399 35.6483 3.16256 35.8802 2.40957ZM24.435 2.89148C24.1163 0.662632 22.9717 0.0150596 20.1901 0.0150596H15.1195L12.164 9.00575H14.0329C15.1484 9.00575 15.7135 9.02081 16.3074 7.36423L17.5389 3.50893H19.4223C21.0304 3.50893 20.6682 5.60225 19.8569 7.6353C19.1325 9.42741 17.8721 11.0087 16.3509 11.0087H13.2071C11.9467 11.0087 11.3672 11.3701 11.1354 12.1231L10.353 14.5176H12.6566L14.9166 14.5026C16.9159 14.4875 18.553 14.3369 20.4654 12.5448C22.4937 10.6322 24.8406 5.72271 24.435 2.89148ZM49.9043 0H45.5146L41.3856 4.56311C40.9073 5.0902 40.4148 5.61728 39.9366 6.23476H39.8931L41.9503 0H38.3722L33.5477 14.5026H37.1262L38.6617 9.93946L40.2553 8.53889L41.5159 12.6653C41.9069 13.9453 42.3129 14.5026 43.1821 14.5026H45.9202L43.1095 6.40041L49.9043 0Z" fill="white"/>
</svg>
