<svg width="14" height="15" viewBox="0 0 14 15" fill="none" xmlns="http://www.w3.org/2000/svg">
<path d="M1.89153 14.3424C1.12003 14.3424 0.684931 13.4562 1.15673 12.8458L5.60416 7.09152L1.27078 1.48855C0.801319 0.881552 1.23396 0 2.00132 0C2.28846 0 2.55927 0.133558 2.73405 0.361374L6.74624 5.59088L10.719 0.364274C10.8934 0.134764 11.1651 0 11.4534 0C12.2199 0 12.6521 0.880578 12.1831 1.4869L7.84848 7.09152L12.308 12.8478C12.7799 13.4569 12.3458 14.3424 11.5752 14.3424C11.2855 14.3424 11.0124 14.2069 10.8372 13.9762L6.74624 8.59216L2.62934 13.9777C2.45363 14.2076 2.18084 14.3424 1.89153 14.3424Z" fill="white"/>
</svg>
