<svg width="82" height="35" viewBox="0 0 82 35" fill="none" xmlns="http://www.w3.org/2000/svg">
<path d="M38.9473 0.729492C37.3066 0.864792 32.9029 1.56311 26.1191 3.49707L26.1143 3.49902C19.801 5.42994 16.7875 7.5942 15.6396 9.58301C15.0598 10.5877 14.9588 11.5445 15.1514 12.3809C15.3424 13.2108 15.8185 13.9026 16.3613 14.4004L16.4658 14.4971L16.6064 14.4717C25.3213 12.846 34.9338 12.1683 38.9473 12.0186V12.2236C38.9472 12.3691 38.8337 12.5038 38.6689 12.5254C32.9256 13.2725 28.1864 14.5331 24.9404 15.6328C23.9886 15.9554 23.4734 16.7048 23.4727 17.4893C23.4721 18.2738 23.9861 19.0252 24.9375 19.3496C28.1836 20.4563 32.9238 21.7268 38.6689 22.4746C38.8337 22.4962 38.9472 22.6309 38.9473 22.7764V22.9805C34.9337 22.8308 25.3213 22.154 16.6064 20.5283L16.4658 20.5029L16.3613 20.5996C15.8185 21.0974 15.3424 21.7892 15.1514 22.6191C14.9588 23.4555 15.0598 24.4123 15.6396 25.417C16.7875 27.4058 19.801 29.5701 26.1143 31.501L26.1191 31.5029C32.9027 33.4369 37.3065 34.1342 38.9473 34.2695V34.6982C32.3296 34.3835 22.6029 33.4409 14.543 31.6104C10.4491 30.6806 6.80484 29.5262 4.21875 28.1211C1.61651 26.7072 0.195947 25.1025 0.291016 23.3047C0.424002 21.8613 1.49483 20.6668 2.76074 19.7197C3.70911 19.0102 4.71502 18.4746 5.44238 18.0869L6.06445 17.748L6.49316 17.5L6.06445 17.252C5.39164 16.8628 4.02507 16.2261 2.76074 15.2803C1.57405 14.3925 0.558212 13.2877 0.326172 11.9639L0.291016 11.6953C0.195948 9.89747 1.61651 8.29284 4.21875 6.87891C6.80484 5.47378 10.4491 4.31943 14.543 3.38965C22.603 1.55912 32.3296 0.615485 38.9473 0.300781V0.729492ZM43.0527 0.300781C49.6704 0.615485 59.397 1.55912 67.457 3.38965C71.5509 4.31943 75.1952 5.47378 77.7812 6.87891C80.3835 8.29284 81.8041 9.89747 81.709 11.6953C81.576 13.1387 80.5052 14.3332 79.2393 15.2803C78.2909 15.9898 77.285 16.5254 76.5576 16.9131L75.9355 17.252L75.5068 17.5L75.9355 17.748C76.6084 18.1372 77.9749 18.7739 79.2393 19.7197C80.426 20.6075 81.4418 21.7123 81.6738 23.0361L81.709 23.3047C81.8041 25.1025 80.3835 26.7072 77.7812 28.1211C75.1952 29.5262 71.5509 30.6806 67.457 31.6104C59.3971 33.4409 49.6704 34.3835 43.0527 34.6982V34.2695C44.6935 34.1342 49.0973 33.4369 55.8809 31.5029L55.8857 31.501C62.199 29.5701 65.2125 27.4058 66.3604 25.417C66.9402 24.4123 67.0412 23.4555 66.8486 22.6191C66.6576 21.7892 66.1815 21.0974 65.6387 20.5996L65.5342 20.5029L65.3936 20.5283C56.6787 22.154 47.0663 22.8308 43.0527 22.9805V22.7764C43.0528 22.6309 43.1663 22.4962 43.3311 22.4746C49.0762 21.7268 53.8164 20.4563 57.0625 19.3496C58.0139 19.0252 58.5279 18.2738 58.5273 17.4893C58.5266 16.7048 58.0114 15.9554 57.0596 15.6328C53.8136 14.5331 49.0744 13.2725 43.3311 12.5254C43.1663 12.5038 43.0528 12.3691 43.0527 12.2236V12.0205C46.9128 12.1645 55.953 12.7943 64.3926 14.2891C65.0887 14.4123 65.9066 14.2408 66.335 13.5791C66.7158 12.9904 66.9668 12.2685 66.9346 11.459C66.9023 10.648 66.5867 9.77196 65.875 8.875C64.4603 7.09215 61.4642 5.20521 55.8857 3.49902L55.8809 3.49707L54.5625 3.12891C48.525 1.47342 44.5846 0.85582 43.0527 0.729492V0.300781Z" fill="black" stroke="black" stroke-width="0.57264"/>
</svg>
