<svg width="89" height="38" viewBox="0 0 89 38" fill="none" xmlns="http://www.w3.org/2000/svg">
<path d="M42.0625 0.600586C40.1258 0.785193 35.4089 1.56583 28.291 3.5957L28.2822 3.59863C21.4204 5.698 18.0819 8.06777 16.7939 10.2998C16.1392 11.4347 16.0199 12.5275 16.2412 13.4893C16.4599 14.4392 17.0023 15.2258 17.6162 15.7891L17.8076 15.9648L18.0635 15.918C27.3553 14.1842 37.5915 13.4447 42.0625 13.2666V13.2715C42.0624 13.3193 42.022 13.3812 41.9424 13.3916C35.6942 14.2046 30.5378 15.5765 27.0029 16.7744C25.8936 17.1503 25.2684 18.0378 25.2676 18.9883C25.2669 19.9388 25.8904 20.828 26.999 21.2061C30.5341 22.4117 35.6919 23.7945 41.9424 24.6084C42.022 24.6188 42.0624 24.6807 42.0625 24.7285V24.7324C37.5915 24.5543 27.3553 23.8158 18.0635 22.082L17.8076 22.0352L17.6162 22.2109C17.0023 22.7742 16.4599 23.5608 16.2412 24.5107C16.0199 25.4725 16.1392 26.5653 16.7939 27.7002C18.0819 29.9322 21.4204 32.302 28.2822 34.4014L28.291 34.4043C35.4088 36.4341 40.1258 37.2138 42.0625 37.3984V37.4531C34.8924 37.1015 24.4734 36.0789 15.8301 34.1152C11.3931 33.1072 7.46024 31.8595 4.67871 30.3477C1.86827 28.8201 0.432909 27.138 0.524414 25.3213C0.66026 23.8464 1.75997 22.5975 3.12207 21.5781C4.14197 20.8149 5.21514 20.2444 6.00488 19.8232L6.6875 19.4502L7.46582 19L6.6875 18.5498L6.00488 18.1768C5.21514 17.7556 4.14197 17.1851 3.12207 16.4219C1.84514 15.4662 0.798374 14.3093 0.560547 12.9531L0.524414 12.6787C0.43291 10.862 1.86827 9.17989 4.67871 7.65234C7.46024 6.14052 11.3931 4.89283 15.8301 3.88477C24.4734 1.92107 34.8924 0.897543 42.0625 0.545898V0.600586ZM46.9375 0.545898C54.1076 0.897543 64.5266 1.92107 73.1699 3.88477C77.6069 4.89283 81.5398 6.14052 84.3213 7.65234C87.1317 9.17989 88.5671 10.862 88.4756 12.6787C88.3397 14.1536 87.24 15.4025 85.8779 16.4219C84.858 17.1851 83.7849 17.7556 82.9951 18.1768L82.3125 18.5498L81.5342 19L82.3125 19.4502C83.0643 19.8852 84.5182 20.5606 85.8779 21.5781C87.1549 22.5338 88.2016 23.6907 88.4395 25.0469L88.4756 25.3213C88.5671 27.138 87.1317 28.8201 84.3213 30.3477C81.5398 31.8595 77.6069 33.1072 73.1699 34.1152C64.5266 36.0789 54.1076 37.1015 46.9375 37.4531V37.3984C48.8742 37.2138 53.5912 36.4341 60.709 34.4043L60.7178 34.4014C67.5796 32.302 70.9181 29.9322 72.2061 27.7002C72.8608 26.5653 72.9801 25.4725 72.7588 24.5107C72.5401 23.5608 71.9977 22.7742 71.3838 22.2109L71.1924 22.0352L70.9365 22.082C61.6447 23.8158 51.4085 24.5543 46.9375 24.7324V24.7285C46.9376 24.6807 46.978 24.6188 47.0576 24.6084C53.3081 23.7945 58.4659 22.4117 62.001 21.2061C63.1096 20.828 63.7331 19.9388 63.7324 18.9883C63.7316 18.0378 63.1064 17.1503 61.9971 16.7744C58.4622 15.5765 53.3058 14.2046 47.0576 13.3916C46.978 13.3812 46.9376 13.3193 46.9375 13.2715V13.2676C51.2346 13.4387 60.8594 14.1274 69.8525 15.7207C70.6561 15.8631 71.6465 15.6717 72.1738 14.8564C72.6068 14.187 72.8944 13.3612 72.8574 12.4326C72.8203 11.5014 72.4587 10.5089 71.6631 9.50586C70.0876 7.51949 66.7851 5.45495 60.7178 3.59863L60.709 3.5957L59.2764 3.19531C52.956 1.46167 48.7412 0.772518 46.9375 0.600586V0.545898Z" fill="black" stroke="black" stroke-width="1.04046"/>
</svg>
